<svg version="1.1" xmlns="http://www.w3.org/2000/svg" xmlns:xlink="http://www.w3.org/1999/xlink" width="118.72162" height="118.60988" viewBox="0,0,118.72162,118.60988"><g transform="translate(-180.69506,-120.69506)"><g data-paper-data="{&quot;isPaintingLayer&quot;:true}" fill-rule="nonzero" stroke="none" stroke-width="0" stroke-linecap="butt" stroke-linejoin="miter" stroke-miterlimit="10" stroke-dasharray="" stroke-dashoffset="0" style="mix-blend-mode: normal"><path d="M180.69506,179.99999c0,-32.75321 26.55173,-59.30493 59.30494,-59.30493c32.75321,0 59.30494,26.55172 59.30494,59.30494c0,32.75321 -26.55172,59.30494 -59.30493,59.30494c-32.75321,0 -59.30494,-26.55173 -59.30494,-59.30494z" fill="#5de0e6"/><path d="M298.68399,189.6133c0,0 -0.07664,-0.48515 -0.11744,-0.22854c-4.49825,28.29371 -29.00683,49.92018 -58.56654,49.92018c-29.26005,0 -53.57087,-21.19021 -58.4236,-49.06177c-0.04309,-0.24747 -0.12465,-0.24398 -0.12465,-0.24398z" fill="#4bccf3"/><path d="M296.36394,198.55809c0,0 0.02739,-0.14508 -0.03734,0.05093c-7.80498,23.63745 -30.07367,40.69592 -56.32659,40.69592c-26.25292,0 -48.52162,-17.05848 -56.3266,-40.69592c-0.055,-0.16659 -0.07952,-0.08408 -0.07952,-0.08408z" fill="#48b0f8"/><path d="M292.50716,207.6179c0,0 -0.00156,-0.01774 -0.15584,0.27125c-9.97976,18.69417 -29.67989,31.41579 -52.3513,31.41579c-22.64119,0 -42.319,-12.68771 -52.31134,-31.34103c-0.10791,-0.20146 -0.12035,-0.00645 -0.12035,-0.00645z" fill="#348ae3"/><path d="M181.16667,182.91667c0,0 -0.25,-1.63457 -0.25,-2.52145c0,-0.99053 0.25,-3.14521 0.25,-3.14521c0,0 3.44552,0.80631 6.21168,1.56788c4.49172,2.17589 4.64012,5.99286 12.01959,6.55498c3.19696,0.24352 11.35019,-8.87149 15.16081,-8.99956c10.62229,-0.357 11.51004,8.86703 17.94159,9.40426c4.97879,0.41588 9.8585,-8.90169 14.88527,-8.72109c10.06859,-1.18917 12.07444,7.73449 17.56869,8.42533c6.05122,0.76087 8.68724,-8.5268 17.19829,-8.66017c11.18808,-0.17532 17.26409,8.82837 17.26409,8.82837c0,0 -0.33778,1.57109 -0.54467,2.38028c-0.274,1.07166 -0.95533,3.48638 -0.95533,3.48638c0,0 2.05639,0.143 -2.64177,-1.11911c-2.24527,-0.60317 -4.64864,-3.57741 -7.01963,-5.02943c-4.58411,-2.80734 -4.00661,-1.71401 -6.09652,-2.39871c-4.1784,1.14989 -11.44243,8.764 -17.40719,8.33073c-6.72622,-0.48859 -10.13992,-8.38726 -15.78967,-8.53733c-5.74783,-0.15267 -9.35262,9.36762 -17.42327,8.27545c-5.46012,-0.73889 -7.56409,-5.37161 -15.57231,-7.42122c-7.14527,-1.82874 -8.40049,9.57149 -18.21008,8.11063c-3.91046,-0.2826 -7.57887,-4.72786 -11.02778,-7.10984c-2.5772,-1.77993 -5.56179,-1.70117 -5.56179,-1.70117z" fill="#85dff3"/><path d="M181.16667,179.16667v-5.66666c0,0 3.44552,0.80631 6.21168,1.56788c4.49172,2.17589 4.64012,5.99286 12.01959,6.55498c3.19696,0.24352 11.35019,-8.87149 15.16081,-8.99956c10.62229,-0.357 11.51004,8.86703 17.94159,9.40426c4.97879,0.41588 9.8585,-8.90169 14.88527,-8.72109c10.06859,-1.18917 12.07444,7.73449 17.56869,8.42533c6.05122,0.76087 8.68724,-8.5268 17.19829,-8.66017c11.18808,-0.17532 17.26409,8.82837 17.26409,8.82837l-0.5,5.86666c0,0 1.05639,0.143 -3.64177,-1.11911c-2.24527,-0.60317 -4.64864,-3.57741 -7.01963,-5.02943c-4.58411,-2.80734 -4.00661,-1.71401 -6.09652,-2.39871c-4.1784,1.14989 -11.44243,8.764 -17.40719,8.33073c-6.72622,-0.48859 -10.13992,-8.38726 -15.78967,-8.53733c-5.74783,-0.15267 -9.35262,9.36762 -17.42327,8.27545c-5.46012,-0.73889 -7.56409,-5.37161 -15.57231,-7.42122c-7.14527,-1.82874 -8.40049,9.57149 -18.21008,8.11063c-3.91046,-0.2826 -7.57887,-4.72786 -11.02778,-7.10984c-2.5772,-1.77993 -5.56179,-1.70117 -5.56179,-1.70117z" fill="#fefffe"/></g></g></svg>